<?xml version="1.0" encoding="UTF-8" standalone="no"?>
<!DOCTYPE svg PUBLIC "-//W3C//DTD SVG 1.1//EN"
 "http://www.w3.org/Graphics/SVG/1.1/DTD/svg11.dtd">
<!-- Generated by graphviz version 12.1.2 (20240928.0832)
 -->
<!-- Title: G Pages: 1 -->
<svg width="781pt" height="162pt"
 viewBox="0.00 0.00 780.75 162.00" xmlns="http://www.w3.org/2000/svg" xmlns:xlink="http://www.w3.org/1999/xlink">
<g id="graph0" class="graph" transform="scale(1 1) rotate(0) translate(4 158)">
<title>G</title>
<polygon fill="white" stroke="none" points="-4,4 -4,-158 776.75,-158 776.75,4 -4,4"/>
<!-- node0 -->
<g id="node1" class="node">
<title>node0</title>
<path fill="#9fdfda" stroke="black" d="M12,-55.5C12,-55.5 52.75,-55.5 52.75,-55.5 58.75,-55.5 64.75,-61.5 64.75,-67.5 64.75,-67.5 64.75,-141.5 64.75,-141.5 64.75,-147.5 58.75,-153.5 52.75,-153.5 52.75,-153.5 12,-153.5 12,-153.5 6,-153.5 0,-147.5 0,-141.5 0,-141.5 0,-67.5 0,-67.5 0,-61.5 6,-55.5 12,-55.5"/>
<text text-anchor="middle" x="32.38" y="-136.2" font-family="Times New Roman,serif" font-size="14.00">node = 0</text>
<polyline fill="none" stroke="black" points="0,-129 64.75,-129"/>
<text text-anchor="middle" x="32.38" y="-111.7" font-family="Times New Roman,serif" font-size="14.00">data = 0</text>
<polyline fill="none" stroke="black" points="0,-104.5 64.75,-104.5"/>
<text text-anchor="middle" x="32.38" y="-87.2" font-family="Times New Roman,serif" font-size="14.00">next = 0</text>
<polyline fill="none" stroke="black" points="0,-80 64.75,-80"/>
<text text-anchor="middle" x="32.38" y="-62.7" font-family="Times New Roman,serif" font-size="14.00">prev = 0</text>
</g>
<!-- node1 -->
<g id="node2" class="node">
<title>node1</title>
<path fill="#9fdfda" stroke="black" d="M112.75,-55.5C112.75,-55.5 155.75,-55.5 155.75,-55.5 161.75,-55.5 167.75,-61.5 167.75,-67.5 167.75,-67.5 167.75,-141.5 167.75,-141.5 167.75,-147.5 161.75,-153.5 155.75,-153.5 155.75,-153.5 112.75,-153.5 112.75,-153.5 106.75,-153.5 100.75,-147.5 100.75,-141.5 100.75,-141.5 100.75,-67.5 100.75,-67.5 100.75,-61.5 106.75,-55.5 112.75,-55.5"/>
<text text-anchor="middle" x="134.25" y="-136.2" font-family="Times New Roman,serif" font-size="14.00">node = 1</text>
<polyline fill="none" stroke="black" points="100.75,-129 167.75,-129"/>
<text text-anchor="middle" x="134.25" y="-111.7" font-family="Times New Roman,serif" font-size="14.00">data = &#45;1</text>
<polyline fill="none" stroke="black" points="100.75,-104.5 167.75,-104.5"/>
<text text-anchor="middle" x="134.25" y="-87.2" font-family="Times New Roman,serif" font-size="14.00">next = 2</text>
<polyline fill="none" stroke="black" points="100.75,-80 167.75,-80"/>
<text text-anchor="middle" x="134.25" y="-62.7" font-family="Times New Roman,serif" font-size="14.00">prev = &#45;1</text>
</g>
<!-- node0&#45;&gt;node1 -->
<g id="edge1" class="edge">
<title>node0&#45;&gt;node1</title>
<path fill="none" stroke="white" d="M64.98,-104.5C72.67,-104.5 81.03,-104.5 89.19,-104.5"/>
<polygon fill="white" stroke="white" points="88.96,-108 98.96,-104.5 88.96,-101 88.96,-108"/>
</g>
<!-- node2 -->
<g id="node3" class="node">
<title>node2</title>
<path fill="#9fdfda" stroke="black" d="M215.75,-55.5C215.75,-55.5 258.75,-55.5 258.75,-55.5 264.75,-55.5 270.75,-61.5 270.75,-67.5 270.75,-67.5 270.75,-141.5 270.75,-141.5 270.75,-147.5 264.75,-153.5 258.75,-153.5 258.75,-153.5 215.75,-153.5 215.75,-153.5 209.75,-153.5 203.75,-147.5 203.75,-141.5 203.75,-141.5 203.75,-67.5 203.75,-67.5 203.75,-61.5 209.75,-55.5 215.75,-55.5"/>
<text text-anchor="middle" x="237.25" y="-136.2" font-family="Times New Roman,serif" font-size="14.00">node = 2</text>
<polyline fill="none" stroke="black" points="203.75,-129 270.75,-129"/>
<text text-anchor="middle" x="237.25" y="-111.7" font-family="Times New Roman,serif" font-size="14.00">data = &#45;1</text>
<polyline fill="none" stroke="black" points="203.75,-104.5 270.75,-104.5"/>
<text text-anchor="middle" x="237.25" y="-87.2" font-family="Times New Roman,serif" font-size="14.00">next = 3</text>
<polyline fill="none" stroke="black" points="203.75,-80 270.75,-80"/>
<text text-anchor="middle" x="237.25" y="-62.7" font-family="Times New Roman,serif" font-size="14.00">prev = &#45;1</text>
</g>
<!-- node1&#45;&gt;node2 -->
<g id="edge2" class="edge">
<title>node1&#45;&gt;node2</title>
<path fill="none" stroke="white" d="M168.04,-104.5C175.63,-104.5 183.82,-104.5 191.81,-104.5"/>
<polygon fill="white" stroke="white" points="191.76,-108 201.76,-104.5 191.76,-101 191.76,-108"/>
</g>
<!-- node3 -->
<g id="node4" class="node">
<title>node3</title>
<path fill="#9fdfda" stroke="black" d="M318.75,-55.5C318.75,-55.5 361.75,-55.5 361.75,-55.5 367.75,-55.5 373.75,-61.5 373.75,-67.5 373.75,-67.5 373.75,-141.5 373.75,-141.5 373.75,-147.5 367.75,-153.5 361.75,-153.5 361.75,-153.5 318.75,-153.5 318.75,-153.5 312.75,-153.5 306.75,-147.5 306.75,-141.5 306.75,-141.5 306.75,-67.5 306.75,-67.5 306.75,-61.5 312.75,-55.5 318.75,-55.5"/>
<text text-anchor="middle" x="340.25" y="-136.2" font-family="Times New Roman,serif" font-size="14.00">node = 3</text>
<polyline fill="none" stroke="black" points="306.75,-129 373.75,-129"/>
<text text-anchor="middle" x="340.25" y="-111.7" font-family="Times New Roman,serif" font-size="14.00">data = &#45;1</text>
<polyline fill="none" stroke="black" points="306.75,-104.5 373.75,-104.5"/>
<text text-anchor="middle" x="340.25" y="-87.2" font-family="Times New Roman,serif" font-size="14.00">next = 4</text>
<polyline fill="none" stroke="black" points="306.75,-80 373.75,-80"/>
<text text-anchor="middle" x="340.25" y="-62.7" font-family="Times New Roman,serif" font-size="14.00">prev = &#45;1</text>
</g>
<!-- node2&#45;&gt;node3 -->
<g id="edge3" class="edge">
<title>node2&#45;&gt;node3</title>
<path fill="none" stroke="white" d="M271.04,-104.5C278.63,-104.5 286.82,-104.5 294.81,-104.5"/>
<polygon fill="white" stroke="white" points="294.76,-108 304.76,-104.5 294.76,-101 294.76,-108"/>
</g>
<!-- node4 -->
<g id="node5" class="node">
<title>node4</title>
<path fill="#9fdfda" stroke="black" d="M421.75,-55.5C421.75,-55.5 464.75,-55.5 464.75,-55.5 470.75,-55.5 476.75,-61.5 476.75,-67.5 476.75,-67.5 476.75,-141.5 476.75,-141.5 476.75,-147.5 470.75,-153.5 464.75,-153.5 464.75,-153.5 421.75,-153.5 421.75,-153.5 415.75,-153.5 409.75,-147.5 409.75,-141.5 409.75,-141.5 409.75,-67.5 409.75,-67.5 409.75,-61.5 415.75,-55.5 421.75,-55.5"/>
<text text-anchor="middle" x="443.25" y="-136.2" font-family="Times New Roman,serif" font-size="14.00">node = 4</text>
<polyline fill="none" stroke="black" points="409.75,-129 476.75,-129"/>
<text text-anchor="middle" x="443.25" y="-111.7" font-family="Times New Roman,serif" font-size="14.00">data = &#45;1</text>
<polyline fill="none" stroke="black" points="409.75,-104.5 476.75,-104.5"/>
<text text-anchor="middle" x="443.25" y="-87.2" font-family="Times New Roman,serif" font-size="14.00">next = 5</text>
<polyline fill="none" stroke="black" points="409.75,-80 476.75,-80"/>
<text text-anchor="middle" x="443.25" y="-62.7" font-family="Times New Roman,serif" font-size="14.00">prev = &#45;1</text>
</g>
<!-- node3&#45;&gt;node4 -->
<g id="edge4" class="edge">
<title>node3&#45;&gt;node4</title>
<path fill="none" stroke="white" d="M374.04,-104.5C381.63,-104.5 389.82,-104.5 397.81,-104.5"/>
<polygon fill="white" stroke="white" points="397.76,-108 407.76,-104.5 397.76,-101 397.76,-108"/>
</g>
<!-- node5 -->
<g id="node6" class="node">
<title>node5</title>
<path fill="#9fdfda" stroke="black" d="M524.75,-55.5C524.75,-55.5 567.75,-55.5 567.75,-55.5 573.75,-55.5 579.75,-61.5 579.75,-67.5 579.75,-67.5 579.75,-141.5 579.75,-141.5 579.75,-147.5 573.75,-153.5 567.75,-153.5 567.75,-153.5 524.75,-153.5 524.75,-153.5 518.75,-153.5 512.75,-147.5 512.75,-141.5 512.75,-141.5 512.75,-67.5 512.75,-67.5 512.75,-61.5 518.75,-55.5 524.75,-55.5"/>
<text text-anchor="middle" x="546.25" y="-136.2" font-family="Times New Roman,serif" font-size="14.00">node = 5</text>
<polyline fill="none" stroke="black" points="512.75,-129 579.75,-129"/>
<text text-anchor="middle" x="546.25" y="-111.7" font-family="Times New Roman,serif" font-size="14.00">data = &#45;1</text>
<polyline fill="none" stroke="black" points="512.75,-104.5 579.75,-104.5"/>
<text text-anchor="middle" x="546.25" y="-87.2" font-family="Times New Roman,serif" font-size="14.00">next = 6</text>
<polyline fill="none" stroke="black" points="512.75,-80 579.75,-80"/>
<text text-anchor="middle" x="546.25" y="-62.7" font-family="Times New Roman,serif" font-size="14.00">prev = &#45;1</text>
</g>
<!-- node4&#45;&gt;node5 -->
<g id="edge5" class="edge">
<title>node4&#45;&gt;node5</title>
<path fill="none" stroke="white" d="M477.04,-104.5C484.63,-104.5 492.82,-104.5 500.81,-104.5"/>
<polygon fill="white" stroke="white" points="500.76,-108 510.76,-104.5 500.76,-101 500.76,-108"/>
</g>
<!-- node6 -->
<g id="node7" class="node">
<title>node6</title>
<path fill="#9fdfda" stroke="black" d="M627.75,-55.5C627.75,-55.5 670.75,-55.5 670.75,-55.5 676.75,-55.5 682.75,-61.5 682.75,-67.5 682.75,-67.5 682.75,-141.5 682.75,-141.5 682.75,-147.5 676.75,-153.5 670.75,-153.5 670.75,-153.5 627.75,-153.5 627.75,-153.5 621.75,-153.5 615.75,-147.5 615.75,-141.5 615.75,-141.5 615.75,-67.5 615.75,-67.5 615.75,-61.5 621.75,-55.5 627.75,-55.5"/>
<text text-anchor="middle" x="649.25" y="-136.2" font-family="Times New Roman,serif" font-size="14.00">node = 6</text>
<polyline fill="none" stroke="black" points="615.75,-129 682.75,-129"/>
<text text-anchor="middle" x="649.25" y="-111.7" font-family="Times New Roman,serif" font-size="14.00">data = &#45;1</text>
<polyline fill="none" stroke="black" points="615.75,-104.5 682.75,-104.5"/>
<text text-anchor="middle" x="649.25" y="-87.2" font-family="Times New Roman,serif" font-size="14.00">next = 7</text>
<polyline fill="none" stroke="black" points="615.75,-80 682.75,-80"/>
<text text-anchor="middle" x="649.25" y="-62.7" font-family="Times New Roman,serif" font-size="14.00">prev = &#45;1</text>
</g>
<!-- node5&#45;&gt;node6 -->
<g id="edge6" class="edge">
<title>node5&#45;&gt;node6</title>
<path fill="none" stroke="white" d="M580.04,-104.5C587.63,-104.5 595.82,-104.5 603.81,-104.5"/>
<polygon fill="white" stroke="white" points="603.76,-108 613.76,-104.5 603.76,-101 603.76,-108"/>
</g>
<!-- node7 -->
<g id="node9" class="node">
<title>node7</title>
<path fill="none" stroke="black" d="M730.75,-86.5C730.75,-86.5 760.75,-86.5 760.75,-86.5 766.75,-86.5 772.75,-92.5 772.75,-98.5 772.75,-98.5 772.75,-110.5 772.75,-110.5 772.75,-116.5 766.75,-122.5 760.75,-122.5 760.75,-122.5 730.75,-122.5 730.75,-122.5 724.75,-122.5 718.75,-116.5 718.75,-110.5 718.75,-110.5 718.75,-98.5 718.75,-98.5 718.75,-92.5 724.75,-86.5 730.75,-86.5"/>
<text text-anchor="middle" x="745.75" y="-99.7" font-family="Times New Roman,serif" font-size="14.00">node7</text>
</g>
<!-- node6&#45;&gt;node7 -->
<g id="edge7" class="edge">
<title>node6&#45;&gt;node7</title>
<path fill="none" stroke="white" d="M683.04,-104.5C690.77,-104.5 699.08,-104.5 707.02,-104.5"/>
<polygon fill="white" stroke="white" points="706.75,-108 716.75,-104.5 706.75,-101 706.75,-108"/>
</g>
<!-- node_free -->
<g id="node8" class="node">
<title>node_free</title>
<path fill="none" stroke="black" d="M14.62,-0.5C14.62,-0.5 50.12,-0.5 50.12,-0.5 56.12,-0.5 62.12,-6.5 62.12,-12.5 62.12,-12.5 62.12,-24.5 62.12,-24.5 62.12,-30.5 56.12,-36.5 50.12,-36.5 50.12,-36.5 14.62,-36.5 14.62,-36.5 8.62,-36.5 2.62,-30.5 2.62,-24.5 2.62,-24.5 2.62,-12.5 2.62,-12.5 2.62,-6.5 8.62,-0.5 14.62,-0.5"/>
<text text-anchor="middle" x="32.38" y="-13.7" font-family="Times New Roman,serif" font-size="14.00">free = 1</text>
</g>
<!-- node_free&#45;&gt;node1 -->
<g id="edge8" class="edge">
<title>node_free&#45;&gt;node1</title>
<path fill="none" stroke="#16476e" d="M54.56,-36.74C65.35,-46.03 78.86,-57.67 91.63,-68.66"/>
<polygon fill="#16476e" stroke="#16476e" points="89.3,-71.27 99.16,-75.14 93.86,-65.97 89.3,-71.27"/>
</g>
</g>
</svg>
